<svg width="18" height="16" viewBox="0 0 18 16" fill="none" xmlns="http://www.w3.org/2000/svg">
<path d="M12.9232 1C15.0577 1 16.7191 2.6551 16.7191 4.7959C16.7191 6.11065 16.1354 7.38619 14.9017 8.89551C13.657 10.4184 11.857 12.0546 9.59218 14.1084L9.5912 14.1094L8.9994 14.6475L8.40858 14.1094L8.40761 14.1084L6.79726 12.6416C5.27737 11.2435 4.03159 10.0376 3.09804 8.89551C1.86439 7.38621 1.28073 6.11063 1.28065 4.7959C1.28065 2.6551 2.94209 1 5.07655 1C6.29133 1.00008 7.4742 1.57073 8.24159 2.46484L9.00038 3.34863L9.75917 2.46484C10.5265 1.57089 11.7086 1.00015 12.9232 1Z" stroke="#C0C0CC" stroke-width="2"/>
</svg>
